<svg width="404" height="216" viewBox="0 0 404 216" fill="none" xmlns="http://www.w3.org/2000/svg" class="wsc-svg-logo-wondershare-vertical">
<path fill-rule="evenodd" clip-rule="evenodd" d="M157.099 152.266C147.98 152.266 141.749 159.528 141.749 168.028C141.749 176.519 147.98 183.795 157.099 183.795C160.565 183.795 164.484 181.988 166.345 178.966V183.018H173.342V137.977H166.345V157.088C164.484 154.063 160.565 152.266 157.099 152.266ZM157.483 158.504C162.881 158.504 166.345 162.882 166.345 168.028C166.345 173.174 162.881 177.552 157.483 177.552C152.218 177.552 148.748 173.174 148.748 168.028C148.748 162.882 152.218 158.504 157.483 158.504Z" fill="black"/>
<path fill-rule="evenodd" clip-rule="evenodd" d="M260.224 183.018H267.23V167.515C267.23 162.366 269.536 158.439 274.423 158.439C279.433 158.439 280.903 162.366 280.903 167.515V183.018H287.908V165.196C287.908 161.074 287.455 158.565 285.981 156.318C284.311 153.81 281.29 152.266 276.989 152.266C272.556 152.266 269.092 154.001 267.23 157.225V137.977H260.224V183.018Z" fill="black"/>
<path fill-rule="evenodd" clip-rule="evenodd" d="M41.3119 183.018H36.6212L25 153.036H32.5123L38.9983 172.016L45.7421 153.036H52.6118L59.3565 172.016L65.8404 153.036H73.353L61.7302 183.018H57.0429L49.2093 160.631L41.3119 183.018Z" fill="black"/>
<path fill-rule="evenodd" clip-rule="evenodd" d="M89.1821 152.262C79.6818 152.262 73.4494 159.524 73.4494 168.024C73.4494 176.516 79.6818 183.791 89.1821 183.791C98.8157 183.791 105.047 176.516 105.047 168.024C105.047 159.524 98.8157 152.262 89.1821 152.262ZM80.4499 168.024C80.4499 162.878 83.9168 158.5 89.1821 158.5C94.58 158.5 98.0469 162.878 98.0469 168.024C98.0469 173.17 94.5801 177.548 89.1821 177.548C83.9168 177.548 80.4499 173.17 80.4499 168.024Z" fill="black"/>
<path fill-rule="evenodd" clip-rule="evenodd" d="M109.325 183.018H116.321V167.515C116.321 162.366 118.636 158.439 123.513 158.439C128.524 158.439 130.004 162.366 130.004 167.515V183.018H137V165.196C137 161.074 136.55 158.565 135.075 156.318C133.405 153.81 130.391 152.266 126.081 152.266C121.654 152.266 118.186 154.001 116.321 157.225V153.036H109.325L109.325 183.018Z" fill="black"/>
<path fill-rule="evenodd" clip-rule="evenodd" d="M177.747 168.028C177.747 176.2 182.626 183.795 192.71 183.795C200.35 183.795 205.167 179.154 206.131 174.013H199.066C198.17 176.133 196.691 177.931 192.71 177.931C187.059 177.931 184.937 174.46 184.874 170.15H206.068C206.387 168.225 206.387 166.809 206.387 165.777C206.387 158.118 200.29 152.266 192.519 152.266C183.08 152.266 177.747 159.02 177.747 168.028ZM184.937 164.944C184.937 160.498 188.213 158.118 192.327 158.118C196.562 158.118 199.584 160.754 199.584 164.944H184.937Z" fill="black"/>
<path fill-rule="evenodd" clip-rule="evenodd" d="M210.664 183.018H217.659V170.089C217.659 162.622 220.938 159.212 226.913 159.212C227.999 159.212 228.579 159.275 229.67 159.528V153.097C228.897 152.777 227.999 152.65 226.913 152.65C222.926 152.65 219.009 155.09 217.659 157.862V153.036H210.664V183.018Z" fill="black"/>
<path fill-rule="evenodd" clip-rule="evenodd" d="M248.489 162.436H255.295C255.295 156.576 250.22 152.266 243.866 152.266C237.764 152.266 232.626 155.285 232.626 160.951C232.626 166.162 235.582 167.71 239.758 169.313C246.048 171.759 249.069 171.957 249.069 174.784C249.069 177.354 246.946 178.26 244.185 178.26C240.846 178.26 238.406 176.844 238.406 172.917H231.597C231.597 179.994 237.379 183.795 243.801 183.795C250.349 183.795 255.743 180.897 255.743 174.652C255.743 169.189 251.767 167.71 247.59 166.1C242.133 163.978 239.371 163.652 239.371 161.074C239.371 158.952 241.299 157.798 243.669 157.798C247.075 157.798 248.489 159.6 248.489 162.436Z" fill="black"/>
<path fill-rule="evenodd" clip-rule="evenodd" d="M307.629 152.266C298.514 152.266 292.281 159.528 292.281 168.028C292.281 176.519 298.514 183.795 307.629 183.795C311.1 183.795 315.014 181.988 316.88 178.966V183.018H323.882V153.036H316.88V157.088C315.014 154.063 311.1 152.266 307.629 152.266ZM308.02 158.504C313.415 158.504 316.88 162.882 316.88 168.028C316.88 173.174 313.415 177.552 308.02 177.552C302.755 177.552 299.287 173.174 299.287 168.028C299.287 162.882 302.755 158.504 308.02 158.504Z" fill="black"/>
<path fill-rule="evenodd" clip-rule="evenodd" d="M330.198 183.018H337.202V170.089C337.202 162.622 340.473 159.212 346.445 159.212C347.538 159.212 348.112 159.275 349.206 159.528V153.097C348.435 152.777 347.538 152.65 346.445 152.65C342.464 152.65 338.547 155.09 337.202 157.862V153.036H330.198V183.018Z" fill="black"/>
<path fill-rule="evenodd" clip-rule="evenodd" d="M364.931 158.118C369.165 158.118 372.187 160.754 372.187 164.944H357.545C357.545 160.498 360.817 158.118 364.931 158.118ZM378.67 170.15C378.991 168.225 378.991 166.809 378.991 165.777C378.991 158.118 372.893 152.266 365.119 152.266C355.678 152.266 350.351 159.02 350.351 168.028C350.351 176.2 355.23 183.795 365.313 183.795C372.961 183.795 377.77 179.154 378.736 174.013H371.671C370.774 176.133 369.296 177.931 365.313 177.931C359.664 177.931 357.545 174.46 357.481 170.15H378.67Z" fill="black"/>
<path d="M241.478 91.3789C243.641 89.1977 243.615 85.7032 241.45 83.5328L202.004 44L185.437 60.5997C183.59 62.4502 180.763 62.719 178.631 61.406L178.521 61.5167L224.897 107.996L241.478 91.3789Z" fill="black"/>
<path d="M195.675 91.3948L179.107 108L135.732 64.5301L156.213 44.0038L195.675 83.5536C197.836 85.7187 197.836 89.2293 195.675 91.3948Z" fill="black"/>
<path d="M268.267 64.53L247.795 85.0478L224.304 61.5208L224.414 61.4101C226.546 62.7231 229.373 62.4543 231.22 60.6035L247.787 44.0038L268.267 64.53Z" fill="black"/>
</svg>
